<?xml version="1.0" standalone="no"?>
<!DOCTYPE svg PUBLIC "-//W3C//DTD SVG 20010904//EN"
 "http://www.w3.org/TR/2001/REC-SVG-20010904/DTD/svg10.dtd">
<svg version="1.0" xmlns="http://www.w3.org/2000/svg"
 width="266.000000pt" height="266.000000pt" viewBox="0 0 266.000000 266.000000"
 preserveAspectRatio="xMidYMid meet">
<metadata>
Created by potrace 1.14, written by Peter Selinger 2001-2017
</metadata>
<g transform="translate(0.000000,266.000000) scale(0.100000,-0.100000)"
fill="#000000" stroke="none">
<path d="M0 1330 l0 -1330 131 0 c103 0 134 3 145 15 11 11 26 13 53 9 28 -4
49 0 79 15 39 20 42 20 43 4 0 -10 7 2 15 27 8 25 12 53 10 63 -2 10 0 14 6
11 6 -4 8 1 4 14 -5 16 1 23 34 36 26 10 47 13 56 8 11 -6 24 -1 42 17 15 15
38 33 52 42 22 14 26 26 30 85 5 67 6 69 35 75 17 4 23 7 15 8 -8 1 23 17 70
36 l85 33 13 -30 c9 -22 10 -38 3 -59 -6 -18 -6 -31 0 -34 5 -4 9 -3 9 2 0 4
4 3 8 -3 4 -6 24 -14 46 -18 35 -7 38 -6 31 11 -4 10 -10 43 -13 73 -3 35 -13
66 -27 85 -30 41 -40 59 -28 52 5 -3 -3 19 -19 50 -29 58 -35 88 -18 98 9 6
14 -7 11 -27 0 -4 5 -5 12 -3 6 3 23 -10 35 -29 13 -19 65 -74 115 -123 102
-98 207 -161 318 -189 96 -25 165 -15 274 39 140 69 186 133 207 288 12 89 13
91 19 49 3 -25 7 -40 8 -35 6 24 19 -50 14 -76 -3 -16 -1 -29 4 -29 5 0 10
-17 11 -37 2 -21 6 -40 9 -43 3 -3 2 45 -1 105 -7 104 -6 111 14 128 33 27 60
35 115 31 35 -2 44 0 30 6 -11 5 -17 9 -14 9 4 1 29 5 57 11 40 7 70 5 149
-12 54 -11 113 -21 131 -21 17 0 32 -3 32 -7 0 -4 14 -8 30 -9 71 -5 80 -7 80
-17 0 -7 7 -14 15 -18 10 -3 15 1 15 13 0 10 -7 22 -16 25 -26 10 -10 18 20
10 14 -3 23 -10 20 -15 -3 -5 5 -9 18 -9 18 0 20 2 8 10 -10 6 -11 10 -2 10 9
0 12 65 12 289 l0 289 -47 -14 c-25 -8 -50 -14 -54 -14 -7 0 -52 132 -46 135
56 25 57 25 57 5 0 -11 7 -20 15 -20 17 0 21 45 5 55 -6 4 -8 11 -5 16 4 5 -1
9 -9 9 -9 0 -16 -9 -16 -20 0 -11 -4 -20 -9 -20 -5 0 -16 -3 -25 -6 -11 -4
-18 6 -27 37 -26 85 -18 21 10 -86 16 -60 27 -112 24 -115 -3 -3 -8 0 -10 7
-3 8 -11 5 -24 -8 -13 -13 -31 -18 -60 -17 -42 1 -57 18 -63 73 -1 12 -5 25
-8 31 -4 5 -15 43 -26 85 l-19 76 31 13 c17 7 36 14 41 15 64 17 65 17 75 -6
10 -24 10 -24 7 3 -4 24 1 27 62 47 36 12 67 17 69 12 2 -5 14 2 28 15 23 24
24 30 24 164 0 85 -4 140 -10 140 -5 0 -17 12 -26 26 -14 20 -15 27 -5 33 7 5
13 12 13 17 1 19 10 34 19 29 4 -3 8 132 9 300 l0 305 -43 0 c-23 0 -53 -7
-65 -16 -13 -9 -51 -24 -85 -34 l-62 -19 52 4 52 5 11 -43 c6 -23 23 -84 36
-135 14 -52 23 -100 20 -107 -6 -15 -75 -38 -118 -38 -16 0 -28 -3 -28 -7 0
-9 -147 -36 -173 -33 -10 2 -16 -1 -13 -6 3 -5 -7 -11 -22 -14 -15 -3 -36 -9
-46 -13 -15 -6 -17 -4 -11 7 7 12 6 12 -7 1 -13 -10 -17 -9 -22 10 -17 56 -66
254 -66 264 0 12 14 17 78 34 22 5 32 4 32 -4 0 -6 4 -4 10 4 11 17 14 14 28
-25 11 -30 11 -30 6 6 l-6 37 68 15 c37 9 71 14 76 11 4 -3 8 0 8 6 0 7 7 10
15 6 8 -3 15 0 15 5 0 6 -8 9 -18 7 -15 -4 -18 -1 -14 18 3 17 0 24 -12 24 -9
0 -16 -8 -16 -17 0 -9 -3 -14 -6 -11 -3 4 -20 0 -37 -7 -18 -7 -53 -16 -78
-19 -37 -6 -46 -4 -46 9 0 8 11 18 25 22 16 4 20 8 12 13 -9 6 -9 9 -1 15 7 4
18 1 26 -5 10 -9 19 -9 32 0 16 9 15 10 -7 6 -22 -5 -21 -4 5 9 26 12 -110 14
-1117 15 l-1148 0 0 -1330z m2134 1247 c-6 -16 -44 -40 -51 -33 -6 6 37 45 49
46 4 0 5 -6 2 -13z m423 -79 c-3 -8 -6 -5 -6 6 -1 11 2 17 5 13 3 -3 4 -12 1
-19z m31 -94 c14 -49 15 -65 2 -43 -12 20 -31 104 -21 93 4 -5 13 -28 19 -50z
m-1533 -24 c3 -5 -3 -10 -15 -10 -12 0 -18 5 -15 10 3 6 10 10 15 10 5 0 12
-4 15 -10z m499 -35 c3 -8 1 -15 -4 -15 -6 0 -10 7 -10 15 0 8 2 15 4 15 2 0
6 -7 10 -15z m1061 -24 c3 -6 -4 -15 -15 -21 -20 -11 -21 -10 -10 9 12 23 16
25 25 12z m-161 -99 c3 -10 8 -35 12 -57 4 -22 10 -47 14 -55 4 -8 10 -27 14
-42 5 -21 3 -28 -9 -28 -8 0 -15 5 -15 11 0 6 -6 9 -14 6 -10 -4 -12 0 -9 14
3 10 9 19 13 19 5 0 3 11 -3 24 -7 13 -15 22 -19 20 -5 -3 -8 -1 -8 5 0 5 -4
21 -10 36 -9 23 -12 25 -32 14 -13 -6 -24 -13 -26 -14 -2 -1 2 -24 9 -49 9
-35 9 -50 0 -59 -8 -8 -11 -7 -12 6 -1 9 -3 22 -4 27 -1 6 -3 16 -4 24 -1 16
-31 49 -38 43 -2 -3 3 -35 12 -72 8 -37 14 -69 12 -71 -1 -2 -13 24 -26 56
-13 33 -27 57 -31 55 -5 -3 -10 2 -13 10 -5 11 -12 12 -37 4 -21 -8 -28 -15
-22 -23 13 -16 24 -78 13 -71 -5 3 -12 -1 -15 -7 -3 -7 -3 2 0 21 4 23 3 31
-5 27 -6 -4 -11 -2 -11 5 0 7 -7 20 -16 30 -9 10 -13 23 -9 29 6 9 10 9 16 -1
6 -10 9 -10 9 -2 0 7 23 19 52 28 41 12 53 12 60 3 5 -9 8 -8 8 4 0 13 15 20
59 29 33 7 58 16 55 21 -3 4 2 5 10 2 8 -3 17 -13 20 -22z m-1920 -88 c7 -17
-10 -54 -24 -54 -11 0 -13 30 -4 54 8 20 20 20 28 0z m1597 -10 c4 -10 8 -28
8 -39 1 -17 -1 -17 -9 -5 -8 12 -10 10 -11 -10 0 -18 -4 -13 -15 20 -17 57
-17 59 3 56 9 -2 20 -11 24 -22z m-1761 6 c0 -13 -11 -13 -30 0 -12 8 -11 10
8 10 12 0 22 -4 22 -10z m1101 -35 c20 -11 29 -21 25 -31 -3 -8 -1 -12 4 -9 8
5 19 -2 73 -53 23 -21 83 -142 92 -185 4 -18 10 -36 14 -42 4 -5 7 -32 7 -60
-1 -43 -4 -50 -21 -51 -48 -2 -55 -5 -55 -19 0 -9 -6 -12 -15 -9 -8 4 -21 1
-29 -5 -7 -6 -15 -8 -19 -5 -10 11 -39 -45 -33 -64 5 -13 -4 -31 -29 -57 -40
-45 -52 -72 -36 -88 8 -8 11 -5 11 9 0 12 9 29 21 40 12 10 28 32 36 47 8 16
17 27 19 24 3 -2 18 7 35 22 41 36 124 62 145 46 15 -11 15 -13 -2 -33 -10
-12 -26 -22 -35 -22 -23 0 -32 -28 -11 -33 11 -3 9 -5 -7 -6 -46 -2 -101 -24
-101 -40 0 -30 19 -46 54 -46 28 -1 36 3 40 21 3 12 3 30 0 38 -8 21 19 21 36
1 6 -8 14 -32 17 -55 4 -31 10 -40 25 -40 11 0 26 7 34 15 26 26 52 18 68 -20
8 -19 20 -35 27 -35 7 0 10 -11 7 -29 -2 -17 -1 -28 3 -26 9 6 5 -291 -5 -330
-34 -138 -49 -208 -56 -269 -9 -75 -42 -180 -53 -169 -4 3 -8 1 -8 -5 -1 -7
-2 -16 -3 -21 -2 -15 -68 -71 -84 -71 -7 0 -26 -13 -42 -29 -22 -22 -30 -25
-34 -14 -6 14 -44 10 -56 -6 -7 -10 -90 -10 -90 -1 0 5 -13 11 -30 15 -16 4
-40 17 -52 31 -13 13 -38 27 -56 30 -19 4 -36 13 -39 20 -3 8 -16 14 -30 14
-18 0 -46 22 -103 81 -109 113 -128 135 -150 175 -25 44 -25 52 0 29 11 -10
20 -23 20 -30 0 -7 9 -20 20 -30 19 -18 20 -17 20 2 0 11 -11 37 -25 58 -14
20 -37 71 -52 113 -14 43 -32 84 -39 93 -8 8 -14 21 -14 27 0 6 -6 15 -12 19
-32 20 -56 88 -54 153 1 36 -2 73 -7 83 -6 14 -3 17 17 17 18 0 25 -6 28 -22
2 -15 9 -22 21 -22 9 1 17 -5 17 -13 0 -10 9 -13 28 -11 21 2 29 10 37 36 5
17 13 32 17 32 4 0 8 6 8 14 0 7 6 19 13 25 11 8 16 5 25 -14 12 -26 36 -33
47 -15 4 6 10 8 15 5 13 -8 23 14 25 51 1 30 -1 31 -35 26 -19 -2 -46 -9 -60
-15 -14 -6 -34 -11 -45 -12 -11 -1 -34 -5 -51 -9 -43 -10 -52 16 -19 52 14 15
25 23 25 19 0 -4 9 -3 21 3 11 7 42 14 67 17 26 3 54 9 62 13 10 6 21 3 32 -7
16 -15 18 -15 18 0 0 38 -19 64 -51 71 -18 3 -37 2 -43 -4 -5 -5 -18 -10 -27
-10 -10 0 -25 -7 -33 -16 -9 -8 -20 -12 -26 -9 -5 3 -10 1 -10 -4 0 -6 -7 -11
-16 -11 -9 0 -12 5 -8 12 11 17 -74 3 -95 -16 -16 -15 -19 -15 -31 -1 -9 11
-9 15 -1 15 8 0 7 6 -3 16 -9 8 -16 24 -16 34 0 28 -18 34 -22 8 -3 -15 -7 -7
-12 25 -6 31 -13 47 -23 47 -9 0 -13 6 -10 15 4 8 2 17 -2 20 -16 10 -23 58
-9 67 10 7 9 11 -4 19 -10 5 -18 17 -18 24 0 18 20 20 21 3 0 -10 2 -10 6 0 6
15 33 16 33 1 0 -5 5 -7 10 -4 17 11 11 45 -7 46 -10 0 -13 3 -6 6 9 3 11 18
6 48 -9 71 52 174 105 175 12 0 22 6 22 13 0 9 2 9 8 -1 7 -10 15 -10 37 -2
16 6 40 8 53 5 15 -4 21 -2 17 5 -3 5 0 10 8 10 8 0 17 7 21 15 6 17 36 21 36
5 0 -5 5 -10 11 -10 8 0 8 4 0 14 -16 19 3 32 63 46 33 7 59 7 85 0 43 -11 87
-9 115 7 22 12 92 1 137 -22z m676 -57 c-3 -8 -6 -5 -6 6 -1 11 2 17 5 13 3
-3 4 -12 1 -19z m160 0 c-3 -8 -6 -5 -6 6 -1 11 2 17 5 13 3 -3 4 -12 1 -19z
m-67 -14 c0 -8 -19 -13 -24 -6 -3 5 1 9 9 9 8 0 15 -2 15 -3z m305 -174 c-2
-11 0 -20 5 -20 5 0 12 -17 15 -37 3 -21 13 -53 21 -71 16 -36 18 -53 7 -50
-5 1 -32 -6 -62 -15 -30 -9 -58 -17 -62 -17 -13 0 -5 59 8 64 7 3 10 -1 6 -10
-7 -18 14 -18 51 1 25 13 27 13 22 -1 -3 -9 -2 -12 5 -9 5 4 8 14 5 23 -22 84
-31 112 -38 112 -6 0 -5 25 1 48 1 1 5 2 10 2 6 0 8 -9 6 -20z m-88 -72 c-3
-8 -6 -5 -6 6 -1 11 2 17 5 13 3 -3 4 -12 1 -19z m-22 -125 c-2 -7 1 -13 8
-14 7 0 1 -5 -13 -10 -14 -6 -33 -8 -42 -5 -10 2 -18 0 -18 -5 0 -5 -12 -6
-26 -3 -19 5 -25 4 -20 -5 4 -6 2 -11 -3 -11 -6 0 -11 8 -11 19 0 14 6 17 25
13 14 -2 25 0 25 7 0 5 7 8 16 4 10 -4 17 1 21 16 3 11 10 21 17 21 8 0 8 2
-1 8 -6 4 -9 19 -6 37 6 28 6 28 19 -16 8 -24 12 -50 9 -56z m-1990 17 c4 -6
-5 -10 -19 -10 -14 0 -26 5 -26 10 0 6 9 10 19 10 11 0 23 -4 26 -10z m1899
-15 c3 -8 1 -15 -4 -15 -6 0 -10 7 -10 15 0 8 2 15 4 15 2 0 6 -7 10 -15z
m-1904 -30 c0 -8 -7 -15 -15 -15 -8 0 -15 7 -15 15 0 8 7 15 15 15 8 0 15 -7
15 -15z m1446 -58 c7 -12 21 -40 33 -62 13 -26 21 -61 22 -99 1 -36 5 -53 10
-44 6 9 9 6 11 -12 1 -14 2 -32 3 -40 1 -8 7 -25 14 -38 15 -29 7 -56 -25 -81
-39 -31 -54 -18 -55 48 0 31 -10 95 -22 143 -15 58 -20 95 -14 110 5 13 4 32
-2 45 -10 22 -6 53 8 53 3 0 11 -10 17 -23z m-1449 -3 c-3 -3 -12 -4 -19 -1
-8 3 -5 6 6 6 11 1 17 -2 13 -5z m-47 -18 c0 -9 -30 -14 -35 -6 -4 6 3 10 14
10 12 0 21 -2 21 -4z m-13 -32 c-3 -3 -12 -4 -19 -1 -8 3 -5 6 6 6 11 1 17 -2
13 -5z m-267 -54 c0 -5 -4 -10 -10 -10 -5 0 -10 5 -10 10 0 6 5 10 10 10 6 0
10 -4 10 -10z m270 -30 c0 -5 -4 -10 -9 -10 -6 0 -13 5 -16 10 -3 6 1 10 9 10
9 0 16 -4 16 -10z m47 -6 c-3 -3 -12 -4 -19 -1 -8 3 -5 6 6 6 11 1 17 -2 13
-5z m-57 -24 c0 -5 -2 -10 -4 -10 -3 0 -8 5 -11 10 -3 6 -1 10 4 10 6 0 11 -4
11 -10z m7 -76 c-3 -3 -12 -4 -19 -1 -8 3 -5 6 6 6 11 1 17 -2 13 -5z m234
-61 c13 -2 29 -10 34 -19 6 -9 25 -34 43 -56 17 -22 32 -47 32 -56 0 -10 20
-61 44 -115 25 -54 42 -105 40 -112 -7 -16 -67 -28 -97 -19 -31 10 -48 35 -42
62 5 20 3 23 -14 17 -14 -4 -25 2 -40 24 -29 40 -26 52 4 17 14 -16 25 -25 25
-19 0 5 -13 22 -29 37 -19 18 -32 43 -36 69 -5 25 -10 35 -15 27 -12 -20 -28
17 -35 87 -7 55 -5 62 16 76 20 15 23 15 34 0 7 -9 23 -18 36 -20z"/>
<path d="M750 1619 c0 -5 5 -7 10 -4 6 3 10 8 10 11 0 2 -4 4 -10 4 -5 0 -10
-5 -10 -11z"/>
<path d="M1164 1419 c-3 -6 -1 -16 6 -22 9 -9 14 -9 17 -1 2 6 16 9 31 6 18
-3 24 -1 17 5 -16 16 -63 24 -71 12z"/>
<path d="M1448 1388 c5 -5 16 -8 23 -6 8 3 3 7 -10 11 -17 4 -21 3 -13 -5z"/>
<path d="M1466 1343 c8 -34 4 -30 37 -38 24 -6 26 -5 21 11 -19 52 -70 75 -58
27z"/>
<path d="M1311 1303 c0 -29 2 -33 8 -18 7 18 4 55 -5 55 -2 0 -4 -17 -3 -37z"/>
<path d="M1480 1284 c0 -26 21 -57 63 -94 46 -41 77 -55 77 -37 0 14 -34 46
-65 62 -11 6 -24 24 -30 40 -14 42 -45 62 -45 29z"/>
<path d="M1346 1167 c-24 -52 -25 -62 -7 -62 14 0 17 9 35 78 10 41 -7 32 -28
-16z"/>
<path d="M1608 1103 c7 -3 16 -2 19 1 4 3 -2 6 -13 5 -11 0 -14 -3 -6 -6z"/>
<path d="M1260 1089 c0 -5 5 -7 10 -4 6 3 10 8 10 11 0 2 -4 4 -10 4 -5 0 -10
-5 -10 -11z"/>
<path d="M1570 1081 c-6 -12 -7 -21 -1 -21 10 0 24 30 17 37 -2 3 -9 -5 -16
-16z"/>
<path d="M1625 1040 c-3 -5 -1 -10 4 -10 6 0 11 5 11 10 0 6 -2 10 -4 10 -3 0
-8 -4 -11 -10z"/>
<path d="M1664 1038 c-3 -5 6 -20 21 -34 26 -24 29 -48 7 -50 -7 -1 -24 -2
-38 -3 -14 0 -23 -5 -20 -10 3 -5 19 -7 36 -5 20 2 30 -1 30 -10 0 -13 -40
-51 -76 -73 -10 -6 -18 -16 -16 -22 1 -6 -4 -11 -10 -11 -7 0 -21 -7 -31 -14
-16 -12 -11 -14 38 -12 67 2 85 18 108 96 16 55 17 83 4 96 -4 4 -2 13 4 20 6
7 8 17 5 22 -8 14 -55 21 -62 10z"/>
<path d="M1605 930 c-3 -5 -1 -10 4 -10 6 0 11 5 11 10 0 6 -2 10 -4 10 -3 0
-8 -4 -11 -10z"/>
<path d="M1288 843 c7 -3 16 -2 19 1 4 3 -2 6 -13 5 -11 0 -14 -3 -6 -6z"/>
<path d="M1200 820 c-13 -8 -12 -10 3 -10 9 0 17 -5 17 -11 0 -5 15 -17 33
-25 17 -8 43 -21 56 -29 20 -11 26 -10 43 7 16 16 22 18 29 7 6 -11 11 -11 20
-2 18 18 5 26 -36 25 -19 -1 -37 3 -40 8 -4 6 -11 8 -16 4 -18 -11 -61 6 -55
21 6 17 -30 21 -54 5z"/>
<path d="M1420 772 c0 -4 10 -9 22 -9 18 -2 20 0 8 7 -18 12 -30 13 -30 2z"/>
<path d="M2475 1660 c-3 -6 1 -7 9 -4 18 7 21 14 7 14 -6 0 -13 -4 -16 -10z"/>
<path d="M573 1185 c0 -22 2 -30 4 -17 2 12 2 30 0 40 -3 9 -5 -1 -4 -23z"/>
<path d="M721 1044 c0 -11 3 -14 6 -6 3 7 2 16 -1 19 -3 4 -6 -2 -5 -13z"/>
<path d="M2430 2650 c-13 -8 -12 -10 3 -10 9 0 17 5 17 10 0 12 -1 12 -20 0z"/>
<path d="M2308 2643 c7 -3 16 -2 19 1 4 3 -2 6 -13 5 -11 0 -14 -3 -6 -6z"/>
<path d="M2460 2465 c0 -8 6 -15 13 -15 8 0 7 -4 -3 -10 -11 -7 -11 -10 -2
-10 7 0 10 -4 7 -10 -3 -5 0 -10 8 -10 13 0 13 6 4 35 -10 35 -27 48 -27 20z"/>
<path d="M2317 2444 c-10 -10 -9 -28 3 -60 17 -44 33 -16 17 30 -7 20 -16 34
-20 30z"/>
<path d="M2242 2410 c0 -8 6 -31 13 -50 7 -19 13 -28 13 -20 0 8 -6 31 -13 50
-7 19 -13 28 -13 20z"/>
<path d="M2156 2401 c-10 -15 15 -71 31 -71 10 0 13 6 9 16 -3 9 -9 27 -12 40
-6 24 -18 31 -28 15z"/>
<path d="M2640 2020 c0 -5 5 -10 11 -10 5 0 7 5 4 10 -3 6 -8 10 -11 10 -2 0
-4 -4 -4 -10z"/>
<path d="M2635 1990 c-3 -6 1 -7 9 -4 18 7 21 14 7 14 -6 0 -13 -4 -16 -10z"/>
<path d="M2652 1480 c0 -14 2 -19 5 -12 2 6 2 18 0 25 -3 6 -5 1 -5 -13z"/>
<path d="M2410 1450 c0 -12 -10 -24 -22 -30 -22 -8 -11 -15 20 -11 6 1 12 -3
12 -9 0 -5 9 -10 20 -10 17 0 19 3 11 17 -7 14 -4 20 17 30 l27 13 -27 -5
c-21 -4 -28 -1 -28 10 0 8 -7 15 -15 15 -8 0 -15 -9 -15 -20z"/>
<path d="M2130 756 c0 -2 9 -6 20 -9 11 -3 18 -1 14 4 -5 9 -34 13 -34 5z"/>
<path d="M2080 723 c0 -4 14 -16 30 -25 17 -9 30 -14 30 -10 0 4 -13 16 -30
25 -16 10 -30 15 -30 10z"/>
<path d="M2150 665 c0 -5 5 -17 10 -25 5 -8 10 -10 10 -5 0 6 -5 17 -10 25 -5
8 -10 11 -10 5z"/>
<path d="M1947 464 c3 -21 10 -43 15 -49 6 -6 7 5 3 30 -10 52 -26 70 -18 19z"/>
</g>
</svg>
